<svg xmlns="http://www.w3.org/2000/svg" version="1.1" xmlns:xlink="http://www.w3.org/1999/xlink" width="24" height="24"><svg enable-background="new 0 0 24 24" id="SvgjsSvg1001" version="1.1" viewBox="0 0 24 24" xml:space="preserve" xmlns="http://www.w3.org/2000/svg" xmlns:xlink="http://www.w3.org/1999/xlink"><g><polyline fill="none" points="23.5,20.5    23.5,0.5 0.5,0.5 0.5,8.5 6.5,8.5 6.5,6.5  " stroke="#303C42" stroke-linecap="round" stroke-linejoin="round" stroke-miterlimit="10"></polyline><polyline fill="none" points="23.5,23.5    0.5,23.5 0.5,11.5  " stroke="#303C42" stroke-linecap="round" stroke-linejoin="round" stroke-miterlimit="10"></polyline><polyline fill="none" points="3.5,5.5    3.5,3.5 11.5,3.5  " stroke="#303C42" stroke-linecap="round" stroke-linejoin="round" stroke-miterlimit="10"></polyline><polyline fill="none" points="9.5,3.5    9.5,8.5 17.5,8.5  " stroke="#303C42" stroke-linecap="round" stroke-linejoin="round" stroke-miterlimit="10"></polyline><line fill="none" stroke="#303C42" stroke-linecap="round" stroke-linejoin="round" stroke-miterlimit="10" x1="20.5" x2="20.5" y1="3.5" y2="14.5"></line><polyline fill="none" points="0.5,17.5    6.5,17.5 6.5,14.5 9.5,14.5 9.5,20.5  " stroke="#303C42" stroke-linecap="round" stroke-linejoin="round" stroke-miterlimit="10"></polyline><line fill="none" stroke="#303C42" stroke-linecap="round" stroke-linejoin="round" stroke-miterlimit="10" x1="4.5" x2="11.5" y1="20.5" y2="20.5"></line><polyline fill="none" points="14.5,8.5    14.5,20.5 17.5,20.5  " stroke="#303C42" stroke-linecap="round" stroke-linejoin="round" stroke-miterlimit="10"></polyline><polyline fill="none" points="20.5,23.5    20.5,17.5 17.5,17.5 17.5,11.5 20.5,11.5  " stroke="#303C42" stroke-linecap="round" stroke-linejoin="round" stroke-miterlimit="10"></polyline><line fill="none" stroke="#303C42" stroke-linecap="round" stroke-linejoin="round" stroke-miterlimit="10" x1="3.5" x2="3.5" y1="14.5" y2="8.5"></line><line fill="none" stroke="#303C42" stroke-linecap="round" stroke-linejoin="round" stroke-miterlimit="10" x1="3.5" x2="11.5" y1="11.5" y2="11.5"></line><line fill="none" stroke="#303C42" stroke-linecap="round" stroke-linejoin="round" stroke-miterlimit="10" x1="20.5" x2="15.5" y1="5.5" y2="5.5"></line><line fill="none" stroke="#303C42" stroke-linecap="round" stroke-linejoin="round" stroke-miterlimit="10" x1="17.5" x2="17.5" y1="0.5" y2="2.5"></line><line fill="none" stroke="#303C42" stroke-linecap="round" stroke-linejoin="round" stroke-miterlimit="10" x1="14.5" x2="12.5" y1="17.5" y2="17.5"></line></g><g></g><g></g><g></g><g></g><g></g><g></g><g></g><g></g><g></g><g></g><g></g><g></g><g></g><g></g><g></g></svg><style>@media (prefers-color-scheme: light) { :root { filter: none; } }
@media (prefers-color-scheme: dark) { :root { filter: none; } }
</style></svg>